:FULLY-SPECIFIED
:FORCE-ALL-JOINTS-BE-3DOF
:DEGREES
1325
root -1.48196 14.939 6.34795 -6.51294 23.5986 2.0146
lfemur -2.52254 5.47605 -17.7208
ltibia 53.8925 -0 0
lfoot -26.3143 25.4814 0.120645
ltoes -14.2276 0 0
rfemur -47.7897 -7.24162 4.87948
rtibia 45.1072 -0 0
rfoot 17.0795 6.57758 -0.0258745
rtoes 3.18394 -0 0
lowerback 12.6392 0.686145 -10.1137
upperback -1.91815 -0.619765 0.785859
thorax -9.12125 0.257742 6.71597
lowerneck -4.61892 -8.81735 -10.7619
upperneck 14.9423 -12.089 7.62244
head 6.46031 -5.97344 3.29668
lclavicle 6.02605e-14 7.6681e-16 -2.90166e-31
lhumerus -34.0083 -44.8205 113.611
lradius 111.281 -0 0
lwrist 40.9604 0 0
lhand -13.5777 47.0723 -0.0244341
lfingers 7.12502 -0 0
lthumb 12.536 76.6721 -0.0245238
rclavicle 6.02605e-14 7.6681e-16 -2.90166e-31
rhumerus 36.4578 21.0255 -54.1902
rradius 99.4359 -0 0
rwrist -21.7207 0 0
rhand -16.555 -29.9045 0.163587
rfingers 7.12502 -0 0
rthumb 9.65814 -59.2202 0.157283
1326
root -1.50198 14.9067 6.56417 -6.13958 23.8738 2.14031
lfemur -1.75136 5.23778 -17.4285
ltibia 53.0708 -0 0
lfoot -26.0766 25.822 0.133317
ltoes -14.4368 0 0
rfemur -48.1499 -7.68253 4.94829
rtibia 45.9026 -0 0
rfoot 16.2694 6.59898 -0.0285985
rtoes 2.8425 -0 0
lowerback 12.5849 0.737882 -10.1322
upperback -1.9631 -0.555265 0.719611
thorax -9.152 0.291125 6.64009
lowerneck -4.39879 -8.94106 -10.7865
upperneck 14.6008 -12.2713 7.71247
head 6.34335 -6.06423 3.33102
lclavicle 5.98616e-14 2.78343e-16 -3.20619e-31
lhumerus -35.7574 -43.6313 113.665
lradius 110.919 -0 0
lwrist 41.6215 0 0
lhand -13.4747 46.9129 -0.026999
lfingers 7.12502 -0 0
lthumb 12.6352 76.5062 -0.0270982
rclavicle 5.98616e-14 2.78343e-16 -3.20619e-31
rhumerus 37.86 19.9597 -52.7075
rradius 98.7423 -0 0
rwrist -19.7065 0 0
rhand -17.6204 -30.0072 0.18085
rfingers 7.12502 -0 0
rthumb 8.63017 -59.3226 0.173875
1327
root -1.52286 14.8731 6.78949 -5.74893 24.1597 2.2737
lfemur -0.949327 4.98534 -17.1275
ltibia 52.2144 -0 0
lfoot -25.8287 26.177 0.145019
ltoes -14.6548 0 0
rfemur -48.5264 -8.14155 5.02305
rtibia 46.7315 -0 0
rfoot 15.4252 6.62132 -0.0311151
rtoes 2.48667 -0 0
lowerback 12.5283 0.791779 -10.1516
upperback -2.01003 -0.488103 0.650519
thorax -9.1841 0.32587 6.561
lowerneck -4.16925 -9.06988 -10.8125
upperneck 14.2444 -12.4605 7.80751
head 6.22138 -6.15877 3.36701
lclavicle 5.94459e-14 -2.30696e-16 -3.48735e-31
lhumerus -37.5428 -42.3913 113.668
lradius 110.541 -0 0
lwrist 42.3104 0 0
lhand -13.3675 46.7468 -0.0293673
lfingers 7.12502 -0 0
lthumb 12.7386 76.3332 -0.0294752
rclavicle 5.94459e-14 -2.30696e-16 -3.48735e-31
rhumerus 39.2798 18.8138 -51.2027
rradius 98.0194 -0 0
rwrist -17.6074 0 0
rhand -18.7308 -30.1145 0.196805
rfingers 7.12502 -0 0
rthumb 7.55887 -59.4296 0.189208
1328
root -1.54448 14.8383 7.02271 -5.34284 24.4548 2.41436
lfemur -0.120932 4.71967 -16.8198
ltibia 51.3281 -0 0
lfoot -25.5721 26.5444 0.155514
ltoes -14.8804 0 0
rfemur -48.9171 -8.61612 5.10373
rtibia 47.5894 -0 0
rfoot 14.5514 6.64448 -0.0333728
rtoes 2.11838 -0 0
lowerback 12.4696 0.847543 -10.1717
upperback -2.05868 -0.418649 0.578949
thorax -9.21738 0.361786 6.47912
lowerneck -3.93155 -9.20308 -10.8401
upperneck 13.875 -12.6558 7.90722
head 6.09505 -6.25654 3.40448
lclavicle 5.90156e-14 -7.57564e-16 -3.73947e-31
lhumerus -39.3547 -41.1085 113.617
lradius 110.15 -0 0
lwrist 43.0234 0 0
lhand -13.2564 46.5749 -0.0314909
lfingers 7.12502 -0 0
lthumb 12.8457 76.1542 -0.0316067
rclavicle 5.90156e-14 -7.57564e-16 -3.73947e-31
rhumerus 40.7056 17.5916 -49.6876
rradius 97.2713 -0 0
rwrist -15.4348 0 0
rhand -19.88 -30.2259 0.211124
rfingers 7.12502 -0 0
rthumb 6.45003 -59.5406 0.202968
1329
root -1.56672 14.8025 7.2626 -4.92336 24.7574 2.56176
lfemur 0.729352 4.44179 -16.5076
ltibia 50.4164 -0 0
lfoot -25.3081 26.9225 0.164593
ltoes -15.1125 0 0
rfemur -49.3202 -9.1037 5.19024
rtibia 48.4719 -0 0
rfoot 13.6526 6.66833 -0.0353264
rtoes 1.73944 -0 0
lowerback 12.4093 0.904883 -10.1924
upperback -2.10882 -0.347269 0.505268
thorax -9.25165 0.398681 6.39487
lowerneck -3.68683 -9.34001 -10.869
upperneck 13.4943 -12.8561 8.01121
head 5.96501 -6.35703 3.44325
lclavicle 5.85731e-14 -1.29952e-15 -3.95753e-31
lhumerus -41.1844 -39.7909 113.51
lradius 109.748 -0 0
lwrist 43.7568 0 0
lhand -13.1422 46.3981 -0.0333278
lfingers 7.12502 -0 0
lthumb 12.9558 75.9701 -0.0334503
rclavicle 5.85731e-14 -1.29952e-15 -3.95753e-31
rhumerus 42.1269 16.298 -48.173
rradius 96.5017 -0 0
rwrist -13.2001 0 0
rhand -21.0622 -30.3408 0.223519
rfingers 7.12502 -0 0
rthumb 5.3094 -59.655 0.214879
